<svg width="672" height="252" xmlns="http://www.w3.org/2000/svg"><g fill="#133441" fill-rule="nonzero"><path d="M139.997 218.9c-41.244 2.883-79.521-21.638-94.305-60.413 40.354 119.188 196.944 70.67 192.182-37.757C233.362 16.393 83.289-18.596 45.629 93.167c23.122-62.615 105.772-80.298 152.894-34.045 56.583 55.63 18.923 154.05-58.526 159.777z"/><path d="M49.013 208.956c-69.93-68.718-23.373-190.36 72.374-197.409 50.953-3.522 98.233 26.754 116.55 74.634C188.246-61.199-5.44-1.227.261 132.434c5.64 129.194 191.055 172.238 237.612 34.234-28.448 77.592-130.586 99.554-188.861 42.288zm424.53-100.372h-.376V94.236h-12.533v99.366h12.533v-58.084a32.625 32.625 0 0 1 6.892-20.515 30.397 30.397 0 0 1 21.493-9.817V91.72c-10.777.755-21.994 2.958-28.01 16.865zm183.66-14.348h12.657v99.366h-12.657V94.236zm-226.709 0h12.658v99.366h-12.658V94.236zm6.517-34.862a9.862 9.862 0 0 0-3.133.503 22.42 22.42 0 0 1 2.193 9.628 22.167 22.167 0 0 1-2.193 9.691 9.862 9.862 0 0 0 3.133.504 10.214 10.214 0 0 0 9.406-6.337 10.29 10.29 0 0 0-2.2-11.158 9.815 9.815 0 0 0-7.206-2.831zM663.47 79.889c4.554-.035 8.237-3.734 8.271-8.307 0-4.598-3.693-8.335-8.271-8.37a7.879 7.879 0 0 0-5.765 2.455 8.072 8.072 0 0 0-2.444 5.915c.034 4.549 3.68 8.238 8.209 8.307zm-31.017 99.428a7.879 7.879 0 0 0-5.765 2.454 8.325 8.325 0 0 0-2.433 5.884c0 2.208.875 4.325 2.433 5.884a8.245 8.245 0 0 0 8.937 1.715 8.307 8.307 0 0 0 5.099-7.568c0-4.598-3.693-8.335-8.271-8.37zm-37.347-67.964h-.375c-8.868-12.49-23.265-19.824-38.537-19.634-18.978-.662-36.803 9.128-46.487 25.532a52.36 52.36 0 0 0 0 53.21c9.684 16.404 27.51 26.194 46.487 25.532 15.252.23 29.649-7.058 38.537-19.508h.375v17.431h12.533V59.185h-12.533v52.168zm-38.85 73.187a39.136 39.136 0 0 1-28.893-11.41 39.482 39.482 0 0 1-11.586-28.928 39.8 39.8 0 0 1 11.43-29.281 39.451 39.451 0 0 1 29.05-11.749c21.753.86 38.948 18.82 38.948 40.684 0 21.864-17.195 39.824-38.948 40.684zM362.32 91.72c-15.347-.127-29.767 7.362-38.537 20.01h-.376V59.186h-12.532v134.417h12.532v-17.117h.376c8.804 12.586 23.222 20.002 38.537 19.823 18.978.662 36.803-9.128 46.487-25.532a52.36 52.36 0 0 0 0-53.21c-9.684-16.405-27.51-26.194-46.487-25.532v-.315zm0 92.82c-21.754-.86-38.948-18.82-38.948-40.684 0-21.864 17.194-39.824 38.948-40.684a39.451 39.451 0 0 1 29.05 11.749 39.8 39.8 0 0 1 11.43 29.281 39.482 39.482 0 0 1-11.586 28.928 39.136 39.136 0 0 1-28.894 11.41z"/></g></svg>